<svg width="328" height="138" viewBox="0 0 328 138" fill="none" xmlns="http://www.w3.org/2000/svg">
<path d="M119.062 29.7033C128.001 29.7033 133.346 35.4304 133.346 43.7784C133.346 44.3608 133.346 44.8462 133.249 45.4286H163.761C163.858 44.4579 163.858 43.4872 163.858 42.4194C163.858 15.6282 142.48 0 118.673 0C100.21 0 82.3304 9.31868 73.7793 29.1209L99.4327 44.1667C103.028 35.8187 109.733 29.7033 119.062 29.7033Z" fill="#FF3617"/>
<path d="M208.837 31.4114L195.332 45.1431H234.585L254.794 24.2047V2.00024H164.144V31.4114H208.837Z" fill="#FFB517"/>
<path d="M9.0204 78.5715C4.07373 78.5715 0 74.507 0 69.5715C0 64.5393 4.07373 60.5715 9.0204 60.5715C10.5723 60.5715 12.1242 60.9586 13.4821 61.7328C14.743 62.507 15.9069 63.5715 16.5859 64.8296L14.549 65.9909C14.0641 65.0231 13.2881 64.249 12.3182 63.6683C11.3482 63.0877 10.1843 62.7973 9.0204 62.7973C5.23765 62.7973 2.23085 65.7973 2.23085 69.5715C2.23085 73.3457 5.23765 76.3457 9.0204 76.3457C10.1843 76.3457 11.3482 76.0554 12.3182 75.4748C13.2881 74.9909 14.0641 74.1199 14.549 73.249L16.5859 74.4102C15.8099 75.7651 14.743 76.8296 13.4821 77.507C12.1242 78.1844 10.5723 78.5715 9.0204 78.5715Z" fill="#00BAB0"/>
<path d="M37.4105 60.8572H39.7491V78.2857H37.4105V70.4429H28.9333V78.2857H26.5947V60.8572H28.9333V68.3127H37.4105V60.8572Z" fill="#E10000"/>
<path d="M54.0755 72.2826H60.3099L57.2407 63.6651L54.0755 72.2826ZM62.5159 78.2857L61.0772 74.4127H53.3082L51.8695 78.2857H49.4717L55.8979 60.8572H58.4875L64.9137 78.2857H62.5159Z" fill="#007400"/>
<path d="M76.8621 63.0842V69.5715H81.5063C82.3771 69.5715 83.1511 69.1842 83.7317 68.6032C84.3122 68.0223 84.6992 67.1508 84.6024 66.2794C84.6024 65.408 84.3122 64.6334 83.7317 63.9556C83.1511 63.3746 82.3771 62.9873 81.5063 62.9873L76.8621 63.0842ZM84.8927 78.2857L81.0225 71.6048H76.8621V78.2857H74.6367V60.8572H81.603C83.0544 60.8572 84.4089 61.4381 85.4732 62.4064C87.3116 64.2461 87.6018 67.1508 86.0538 69.3778C85.3765 70.2492 84.5057 70.927 83.4414 71.3143L87.5051 78.2857H84.8927Z" fill="#00ABC3"/>
<path d="M99.892 76.1556H107.522V78.2857H97.5137V60.8572H99.892V76.1556Z" fill="#B30000"/>
<path d="M119.533 60.8572H117.245V78.2857H119.533V60.8572Z" fill="#E082A2"/>
<path d="M133.281 76.1556H141.266V78.2857H130.972V60.8572H141.17V63.0842H133.281V68.4096H140.593V70.6365H133.281V76.1556Z" fill="#F2CC00"/>
<path d="M174.647 78.5715C169.573 78.5715 165.573 74.507 165.573 69.5715C165.573 64.5393 169.671 60.5715 174.647 60.5715C176.208 60.5715 177.769 60.9586 179.037 61.7328C180.305 62.507 181.476 63.5715 182.159 64.8296L180.11 65.9909C179.622 65.0231 178.842 64.249 177.866 63.6683C176.891 63.0877 175.72 62.7973 174.549 62.7973C172.695 62.7006 170.939 63.4748 169.573 64.7328C167.037 67.4425 167.037 71.7006 169.573 74.4102C170.842 75.6683 172.695 76.4425 174.549 76.3457C175.72 76.3457 176.891 76.0554 177.866 75.4748C178.842 74.9909 179.622 74.1199 180.11 73.249L182.159 74.4102C181.379 75.6683 180.305 76.7328 179.037 77.507C177.769 78.1844 176.208 78.5715 174.647 78.5715Z" fill="#82B7D8"/>
<path d="M195.337 72.2826H201.686L198.56 63.6651L195.337 72.2826ZM203.836 78.2857L202.37 74.4127H194.457L192.992 78.2857H190.452L196.997 60.8572H199.635L206.18 78.2857H203.836Z" fill="#FFA82E"/>
<path d="M232.202 60.8572V78.2857H229.887V64.7302L224.197 74.2191L223.908 74.1223L218.217 64.7302V78.2857H215.902V60.8572H218.506L224.101 70.1524L229.598 60.8572H232.202Z" fill="#E0460A"/>
<path d="M245.929 76.1556H253.936V78.2857H243.642V60.8572H253.841V63.0842H245.929V68.4096H253.174V70.6365H245.929V76.1556Z" fill="#A708AF"/>
<path d="M266.741 63.0842V69.5715H271.385C272.256 69.5715 273.03 69.1842 273.611 68.6032C274.191 68.0223 274.578 67.1508 274.481 66.2794C274.481 65.408 274.191 64.6334 273.611 63.9556C273.03 63.3746 272.256 62.9873 271.385 62.9873L266.741 63.0842ZM274.772 78.2857L270.901 71.6048H266.838V78.2857H264.516V60.8572H271.482C272.933 60.8572 274.288 61.4381 275.352 62.4064C276.416 63.3746 276.997 64.827 276.9 66.2794C276.9 67.3445 276.61 68.5064 275.933 69.3778C275.255 70.2492 274.385 70.927 273.32 71.3143L277.384 78.2857H274.772Z" fill="#0070B7"/>
<path d="M290.454 74.3047C293.144 76.9378 297.372 76.9378 299.966 74.3047C302.56 71.574 302.56 67.283 299.966 64.5523C297.276 61.9192 293.048 61.9192 290.454 64.5523C287.955 67.283 287.955 71.574 290.454 74.3047ZM301.599 75.8651C298.044 79.4735 292.375 79.4735 288.916 75.8651C285.361 72.2567 285.361 66.5028 288.916 62.9919C292.471 59.3835 298.14 59.3835 301.599 62.9919C305.154 66.6003 305.154 72.3542 301.599 75.8651Z" fill="#009082"/>
<path d="M325.679 60.8572V74.0254L316.587 60.8572H314.846V78.2857H317.167V65.3111L326.162 78.2857H328V60.8572H325.679Z" fill="#275983"/>
<path d="M210.844 108.297C201.904 108.297 196.559 102.57 196.559 94.2217C196.559 93.6393 196.559 93.154 196.657 92.5715H166.242C166.145 93.5422 166.145 94.5129 166.145 95.5807C166.145 122.372 187.522 138 211.33 138C229.792 138 247.672 128.681 256.223 108.879L230.57 93.8334C226.877 102.181 220.172 108.297 210.844 108.297Z" fill="#00D2C7"/>
<path d="M120.925 106.738L134.527 93H95.2748L75.0654 113.896V135.857H165.716V106.738H120.925Z" fill="#0031B5"/>
</svg>
