<svg width="21" height="21" viewBox="0 0 21 21" fill="none" xmlns="http://www.w3.org/2000/svg">
<path d="M20.8125 19.1875C21 19.375 21 19.6875 20.8125 19.875C20.625 20.0625 20.3125 20.0625 20.125 19.875L11 10.75L1.8125 19.875C1.625 20.0625 1.3125 20.0625 1.125 19.875C0.9375 19.6875 0.9375 19.375 1.125 19.1875L10.25 10L1.125 0.875C0.9375 0.6875 0.9375 0.375 1.125 0.1875C1.3125 0 1.625 0 1.8125 0.1875L11 9.3125L20.125 0.1875C20.3125 0 20.625 0 20.8125 0.1875C21 0.375 21 0.6875 20.8125 0.875L11.6875 10L20.8125 19.1875Z" fill="white"/>
</svg>
